<svg width="296" height="46" viewBox="0 0 296 46" fill="none" xmlns="http://www.w3.org/2000/svg">
<g clip-path="url(#clip0_1_135)">
<path d="M55.4651 15.4777C56.4362 13.594 57.7616 12.1453 59.443 11.1303C61.1236 10.1161 62.9929 9.60892 65.0517 9.60892C66.6171 9.60892 68.1096 9.94966 69.5295 10.6304C70.9493 11.3119 72.0803 12.2174 72.921 13.3476V1.91257H79.0945V34.0861H72.921V30.5211C72.1667 31.7097 71.1092 32.6663 69.747 33.3903C68.3841 34.1142 66.8051 34.4773 65.0078 34.4773C62.9785 34.4773 61.1236 33.9558 59.443 32.9127C57.7616 31.8689 56.4354 30.3986 55.4651 28.4997C54.4934 26.6016 54.0085 24.4203 54.0085 21.9567C54.0085 19.5211 54.4934 17.3622 55.4651 15.4777ZM72.0954 18.2382C71.5155 17.1807 70.7325 16.3688 69.7478 15.804C68.7616 15.2386 67.7041 14.9562 66.5738 14.9562C65.4436 14.9562 64.3998 15.2321 63.4439 15.7824C62.4872 16.3335 61.7114 17.1374 61.1178 18.1957C60.5235 19.2539 60.2267 20.5073 60.2267 21.9567C60.2267 23.406 60.5235 24.6739 61.1178 25.7609C61.7114 26.8479 62.4944 27.6814 63.4655 28.2613C64.4365 28.8412 65.4724 29.1308 66.5738 29.1308C67.7041 29.1308 68.7623 28.8477 69.7478 28.2829C70.7325 27.7174 71.5155 26.9063 72.0954 25.8481C72.6753 24.7899 72.9649 23.522 72.9649 22.0438C72.9649 20.5656 72.6746 19.2971 72.0954 18.2382Z" fill="white"/>
<path d="M85.4639 6.10796C84.7536 5.42721 84.3984 4.57935 84.3984 3.56436C84.3984 2.55008 84.7529 1.70294 85.4639 1.02075C86.1734 0.340732 87.0652 0 88.1378 0C89.2097 0 90.1008 0.340732 90.8118 1.02147C91.5214 1.70294 91.8772 2.5508 91.8772 3.56508C91.8772 4.58007 91.5221 5.42793 90.8118 6.10868C90.1008 6.79014 89.2097 7.13015 88.1378 7.13015C87.0652 7.13015 86.1734 6.78942 85.4639 6.10796ZM91.1381 9.99936V34.0861H85.0511V9.99936H91.1381Z" fill="white"/>
<path d="M111.311 10.6736C112.673 11.3839 113.745 12.3038 114.528 13.4348V10.0001H120.659V34.2605C120.659 36.4921 120.208 38.4847 119.311 40.2388C118.412 41.9921 117.064 43.3839 115.267 44.4125C113.469 45.4412 111.296 45.9563 108.746 45.9563C105.325 45.9563 102.521 45.1588 100.333 43.5647C98.1437 41.9705 96.9047 39.7965 96.6158 37.0432H102.659C102.977 38.1447 103.665 39.0213 104.724 39.6733C105.782 40.3259 107.065 40.6515 108.572 40.6515C110.339 40.6515 111.774 40.1221 112.876 39.0646C113.977 38.0063 114.528 36.405 114.528 34.2605V30.5218C113.745 31.652 112.666 32.5943 111.289 33.3478C109.912 34.1013 108.339 34.478 106.571 34.478C104.542 34.478 102.687 33.9565 101.006 32.9134C99.3251 31.8696 97.9989 30.3993 97.0286 28.5004C96.0568 26.6023 95.572 24.421 95.572 21.9574C95.572 19.5226 96.0568 17.3636 97.0286 15.4792C97.9996 13.5954 99.3179 12.1468 100.985 11.1318C102.651 10.1175 104.513 9.61036 106.571 9.61036C108.369 9.6082 109.948 9.96406 111.311 10.6736ZM113.659 18.2381C113.079 17.1807 112.296 16.3688 111.311 15.804C110.325 15.2386 109.268 14.9562 108.137 14.9562C107.007 14.9562 105.963 15.2321 105.007 15.7824C104.051 16.3335 103.275 17.1374 102.681 18.1956C102.087 19.2539 101.79 20.5073 101.79 21.9567C101.79 23.406 102.087 24.6739 102.681 25.7609C103.275 26.8479 104.058 27.6814 105.029 28.2613C106 28.8412 107.036 29.1308 108.137 29.1308C109.268 29.1308 110.326 28.8477 111.311 28.2829C112.296 27.7174 113.079 26.9063 113.659 25.8481C114.239 24.7899 114.528 23.522 114.528 22.0438C114.528 20.5656 114.239 19.2971 113.659 18.2381Z" fill="white"/>
<path d="M127.028 6.10796C126.318 5.42721 125.963 4.57935 125.963 3.56436C125.963 2.55008 126.317 1.70294 127.028 1.02075C127.738 0.340732 128.629 0 129.702 0C130.774 0 131.665 0.340732 132.376 1.02147C133.086 1.70294 133.441 2.5508 133.441 3.56508C133.441 4.58007 133.086 5.42793 132.376 6.10868C131.665 6.79014 130.774 7.13015 129.702 7.13015C128.629 7.13015 127.738 6.78942 127.028 6.10796ZM132.702 9.99936V34.0861H126.615V9.99936H132.702Z" fill="white"/>
<path d="M145.789 14.9994V26.6513C145.789 27.4631 145.984 28.0502 146.375 28.4118C146.766 28.7749 147.425 28.955 148.353 28.955H151.179V34.0854H147.352C142.222 34.0854 139.657 31.593 139.657 26.6073V14.9994H136.788V9.99936H139.657V4.0434H145.787V10.0001H151.178V15.0001L145.789 14.9994Z" fill="white"/>
<path d="M155.462 15.4777C156.433 13.594 157.751 12.1453 159.418 11.1303C161.084 10.1161 162.946 9.60892 165.004 9.60892C166.802 9.60892 168.374 9.97126 169.722 10.6959C171.07 11.4206 172.149 12.3333 172.961 13.4348V10.0001H179.091V34.0869H172.961V30.565C172.178 31.6952 171.099 32.6303 169.722 33.3694C168.345 34.1085 166.758 34.478 164.961 34.478C162.932 34.478 161.084 33.9565 159.418 32.9134C157.751 31.8696 156.432 30.3993 155.462 28.5004C154.49 26.6023 154.005 24.421 154.005 21.9574C154.005 19.5211 154.49 17.3622 155.462 15.4777ZM172.091 18.2381C171.511 17.1807 170.728 16.3688 169.743 15.804C168.757 15.2386 167.7 14.9562 166.57 14.9562C165.439 14.9562 164.396 15.2321 163.44 15.7824C162.483 16.3335 161.707 17.1374 161.114 18.1956C160.519 19.2539 160.222 20.5073 160.222 21.9567C160.222 23.406 160.519 24.6739 161.114 25.7609C161.707 26.8479 162.49 27.6814 163.461 28.2613C164.432 28.8412 165.468 29.1308 166.57 29.1308C167.7 29.1308 168.758 28.8477 169.743 28.2829C170.728 27.7174 171.511 26.9063 172.091 25.8481C172.671 24.7898 172.961 23.522 172.961 22.0438C172.961 20.5656 172.671 19.2971 172.091 18.2381Z" fill="white"/>
<path d="M191.135 1.91257V34.0861H185.048V1.91257H191.135Z" fill="white"/>
<path d="M207.177 13.5212H202.178V34.0861H198.221V13.5212H195.134V10.2608H198.221V8.56511C198.221 5.89905 198.91 3.94975 200.286 2.71721C201.663 1.48539 203.873 0.869476 206.916 0.869476V4.17378C205.177 4.17378 203.953 4.51451 203.243 5.19526C202.532 5.87672 202.177 6.99904 202.177 8.56439V10.2601H207.176V13.5212H207.177Z" fill="white"/>
<path d="M215.742 1.91257V34.0861H211.786V1.91257H215.742Z" fill="white"/>
<path d="M222.481 15.6737C223.465 13.8331 224.821 12.4061 226.546 11.3911C228.27 10.3768 230.191 9.86969 232.306 9.86969C234.393 9.86969 236.204 10.3199 237.741 11.2175C239.277 12.1165 240.422 13.2468 241.176 14.609V10.2616H245.176V34.0868H241.176V29.6523C240.394 31.044 239.227 32.1959 237.677 33.1086C236.126 34.022 234.322 34.478 232.264 34.478C230.147 34.478 228.234 33.9565 226.525 32.9134C224.814 31.8696 223.466 30.4065 222.481 28.522C221.496 26.6383 221.003 24.4938 221.003 22.0878C221.002 19.6515 221.495 17.5142 222.481 15.6737ZM240.089 17.4342C239.364 16.1008 238.386 15.0794 237.154 14.3691C235.922 13.6588 234.567 13.3037 233.089 13.3037C231.611 13.3037 230.263 13.6516 229.046 14.3475C227.829 15.0426 226.857 16.0583 226.133 17.391C225.408 18.7244 225.046 20.2897 225.046 22.087C225.046 23.9132 225.408 25.5001 226.133 26.8479C226.857 28.1957 227.828 29.2244 229.046 29.9347C230.263 30.645 231.612 31.0001 233.089 31.0001C234.567 31.0001 235.922 30.6457 237.154 29.9347C238.386 29.2244 239.364 28.195 240.089 26.8479C240.814 25.5001 241.176 23.9283 241.176 22.1303C241.175 20.333 240.813 18.7676 240.089 17.4342Z" fill="white"/>
<path d="M265.176 34.0861L255.828 23.5645V34.0861H251.871V1.91257H255.828V20.8257L265.001 10.2609H270.522L259.305 22.1296L270.566 34.0861H265.176Z" fill="white"/>
<path d="M295.87 23.6517H276.826C276.971 25.9993 277.775 27.8334 279.239 29.1516C280.702 30.4706 282.479 31.1298 284.566 31.1298C286.276 31.1298 287.703 30.7314 288.848 29.934C289.993 29.1372 290.797 28.0718 291.261 26.7384H295.522C294.884 29.0285 293.609 30.8906 291.696 32.3248C289.783 33.7591 287.406 34.4766 284.566 34.4766C282.305 34.4766 280.284 33.9702 278.501 32.9552C276.718 31.9409 275.319 30.4987 274.306 28.6294C273.291 26.76 272.784 24.5932 272.784 22.1296C272.784 19.6666 273.277 17.507 274.262 15.6513C275.247 13.7964 276.632 12.3686 278.415 11.3688C280.197 10.3689 282.247 9.86826 284.566 9.86826C286.828 9.86826 288.827 10.3617 290.566 11.3464C292.305 12.3319 293.645 13.6876 294.588 15.4114C295.53 17.1367 296.001 19.0853 296.001 21.2594C296 22.0143 295.957 22.811 295.87 23.6517ZM290.913 16.5431C290.246 15.4561 289.34 14.6299 288.196 14.0651C287.051 13.4996 285.783 13.2172 284.392 13.2172C282.392 13.2172 280.689 13.8547 279.283 15.1305C277.877 16.4063 277.073 18.174 276.87 20.4345H291.913C291.913 18.9275 291.58 17.6302 290.913 16.5431Z" fill="white"/>
<path d="M38.9968 45.362H5.77227C2.5897 45.362 0 42.7723 0 39.5897V6.36585C0 3.18257 2.5897 0.592865 5.77227 0.592865H38.9968C42.1794 0.592865 44.7691 3.18257 44.7691 6.36585V39.589C44.7691 42.7723 42.1794 45.362 38.9968 45.362ZM5.77227 2.1402C3.44261 2.1402 1.54734 4.03548 1.54734 6.36585V39.589C1.54734 41.9194 3.44261 43.8146 5.77227 43.8146H38.9968C41.3265 43.8146 43.2218 41.9194 43.2218 39.589V6.36585C43.2218 4.03548 41.3265 2.1402 38.9968 2.1402H5.77227Z" fill="white"/>
<path d="M33.7375 14.7495C32.3731 12.3665 30.4397 10.5382 27.9371 9.26389C27.023 8.79853 26.0527 8.4189 25.0283 8.12355V12.7202C26.0073 13.1992 26.8645 13.8231 27.6 14.5917C29.5486 16.6303 30.5225 19.4628 30.5225 23.0898C30.5225 26.6866 29.5486 29.4744 27.6 31.4525C26.8645 32.1988 26.0073 32.8046 25.0283 33.2693V37.8493C26.0527 37.5612 27.0223 37.1902 27.9371 36.7356C30.4397 35.4923 32.3731 33.7008 33.7375 31.3625C35.1012 29.0242 35.7833 26.2666 35.7833 23.0891C35.7833 19.9137 35.1012 17.1331 33.7375 14.7495ZM10.2414 7.35349C9.54844 7.35349 8.98584 7.91321 8.98584 8.60331V38.6021H19.1919C19.3778 38.6021 19.5615 38.5992 19.7445 38.5956V34.411C19.5622 34.4161 19.3785 34.4204 19.1919 34.4204H14.1112V11.5345H19.1919C19.3785 11.5345 19.5622 11.5388 19.7445 11.5446V7.35997C19.5615 7.35565 19.3778 7.35349 19.1919 7.35349H10.2414Z" fill="white"/>
</g>
<defs>
<clipPath id="clip0_1_135">
<rect width="296" height="45.9556" fill="white"/>
</clipPath>
</defs>
</svg>
