<svg width="457" height="32" viewBox="0 0 457 32" fill="none" xmlns="http://www.w3.org/2000/svg">
<path d="M7.04545 25L0.681818 1.72727H3.54545L8.40909 20.6818H8.63636L13.5909 1.72727H16.7727L21.7273 20.6818H21.9545L26.8182 1.72727H29.6818L23.3182 25H20.4091L15.2727 6.45454H15.0909L9.95455 25H7.04545ZM38.5227 25.3636C36.8409 25.3636 35.3902 24.9924 34.1705 24.25C32.9583 23.5 32.0227 22.4545 31.3636 21.1136C30.7121 19.7652 30.3864 18.197 30.3864 16.4091C30.3864 14.6212 30.7121 13.0455 31.3636 11.6818C32.0227 10.3106 32.9394 9.24242 34.1136 8.47727C35.2955 7.70455 36.6742 7.31818 38.25 7.31818C39.1591 7.31818 40.0568 7.4697 40.9432 7.77273C41.8295 8.07576 42.6364 8.56818 43.3636 9.25C44.0909 9.92424 44.6705 10.8182 45.1023 11.9318C45.5341 13.0455 45.75 14.4167 45.75 16.0455V17.1818H32.2955V14.8636H43.0227C43.0227 13.8788 42.8258 13 42.4318 12.2273C42.0455 11.4545 41.4924 10.8447 40.7727 10.3977C40.0606 9.95076 39.2197 9.72727 38.25 9.72727C37.1818 9.72727 36.2576 9.99242 35.4773 10.5227C34.7045 11.0455 34.1098 11.7273 33.6932 12.5682C33.2765 13.4091 33.0682 14.3106 33.0682 15.2727V16.8182C33.0682 18.1364 33.2955 19.2538 33.75 20.1705C34.2121 21.0795 34.8523 21.7727 35.6705 22.25C36.4886 22.7197 37.4394 22.9545 38.5227 22.9545C39.2273 22.9545 39.8636 22.8561 40.4318 22.6591C41.0076 22.4545 41.5038 22.1515 41.9205 21.75C42.3371 21.3409 42.6591 20.8333 42.8864 20.2273L45.4773 20.9545C45.2045 21.8333 44.7462 22.6061 44.1023 23.2727C43.4583 23.9318 42.6629 24.447 41.7159 24.8182C40.7689 25.1818 39.7045 25.3636 38.5227 25.3636ZM52.5114 1.72727V25H49.8295V1.72727H52.5114ZM64.5142 25.3636C62.8778 25.3636 61.4688 24.9773 60.2869 24.2045C59.1051 23.4318 58.196 22.3674 57.5597 21.0114C56.9233 19.6553 56.6051 18.1061 56.6051 16.3636C56.6051 14.5909 56.9309 13.0265 57.5824 11.6705C58.2415 10.3068 59.1581 9.24242 60.3324 8.47727C61.5142 7.70455 62.893 7.31818 64.4688 7.31818C65.696 7.31818 66.8021 7.54545 67.7869 8C68.7718 8.45455 69.5786 9.09091 70.2074 9.90909C70.8362 10.7273 71.2263 11.6818 71.3778 12.7727H68.696C68.4915 11.9773 68.0369 11.2727 67.3324 10.6591C66.6354 10.0379 65.696 9.72727 64.5142 9.72727C63.4688 9.72727 62.5521 10 61.7642 10.5455C60.9839 11.0833 60.3741 11.8447 59.9347 12.8295C59.5028 13.8068 59.2869 14.9545 59.2869 16.2727C59.2869 17.6212 59.4991 18.7955 59.9233 19.7955C60.3551 20.7955 60.9612 21.572 61.7415 22.125C62.5294 22.678 63.4536 22.9545 64.5142 22.9545C65.2112 22.9545 65.8438 22.8333 66.4119 22.5909C66.9801 22.3485 67.4612 22 67.8551 21.5455C68.2491 21.0909 68.5294 20.5455 68.696 19.9091H71.3778C71.2263 20.9394 70.8513 21.8674 70.2528 22.6932C69.6619 23.5114 68.8778 24.1629 67.9006 24.6477C66.9309 25.125 65.8021 25.3636 64.5142 25.3636ZM82.3892 25.3636C80.8134 25.3636 79.4309 24.9886 78.2415 24.2386C77.0597 23.4886 76.1354 22.4394 75.4688 21.0909C74.8097 19.7424 74.4801 18.1667 74.4801 16.3636C74.4801 14.5455 74.8097 12.9583 75.4688 11.6023C76.1354 10.2462 77.0597 9.19318 78.2415 8.44318C79.4309 7.69318 80.8134 7.31818 82.3892 7.31818C83.965 7.31818 85.3438 7.69318 86.5256 8.44318C87.715 9.19318 88.6392 10.2462 89.2983 11.6023C89.965 12.9583 90.2983 14.5455 90.2983 16.3636C90.2983 18.1667 89.965 19.7424 89.2983 21.0909C88.6392 22.4394 87.715 23.4886 86.5256 24.2386C85.3438 24.9886 83.965 25.3636 82.3892 25.3636ZM82.3892 22.9545C83.5862 22.9545 84.571 22.6477 85.3438 22.0341C86.1165 21.4205 86.6884 20.6136 87.0597 19.6136C87.4309 18.6136 87.6165 17.5303 87.6165 16.3636C87.6165 15.197 87.4309 14.1098 87.0597 13.1023C86.6884 12.0947 86.1165 11.2803 85.3438 10.6591C84.571 10.0379 83.5862 9.72727 82.3892 9.72727C81.1922 9.72727 80.2074 10.0379 79.4347 10.6591C78.6619 11.2803 78.09 12.0947 77.7188 13.1023C77.3475 14.1098 77.1619 15.197 77.1619 16.3636C77.1619 17.5303 77.3475 18.6136 77.7188 19.6136C78.09 20.6136 78.6619 21.4205 79.4347 22.0341C80.2074 22.6477 81.1922 22.9545 82.3892 22.9545ZM94.392 25V7.54545H96.983V10.2727H97.2102C97.5739 9.34091 98.161 8.61742 98.9716 8.10227C99.7822 7.57955 100.756 7.31818 101.892 7.31818C103.044 7.31818 104.002 7.57955 104.767 8.10227C105.54 8.61742 106.142 9.34091 106.574 10.2727H106.756C107.203 9.37121 107.873 8.6553 108.767 8.125C109.661 7.58712 110.733 7.31818 111.983 7.31818C113.544 7.31818 114.82 7.80682 115.812 8.78409C116.805 9.75379 117.301 11.2652 117.301 13.3182V25H114.619V13.3182C114.619 12.0303 114.267 11.1098 113.562 10.5568C112.858 10.0038 112.028 9.72727 111.074 9.72727C109.847 9.72727 108.896 10.0985 108.222 10.8409C107.547 11.5758 107.21 12.5076 107.21 13.6364V25H104.483V13.0455C104.483 12.053 104.161 11.2538 103.517 10.6477C102.873 10.0341 102.044 9.72727 101.028 9.72727C100.331 9.72727 99.6799 9.91288 99.0739 10.2841C98.4754 10.6553 97.9905 11.1705 97.6193 11.8295C97.2557 12.4811 97.0739 13.2348 97.0739 14.0909V25H94.392ZM129.523 25.3636C127.841 25.3636 126.39 24.9924 125.17 24.25C123.958 23.5 123.023 22.4545 122.364 21.1136C121.712 19.7652 121.386 18.197 121.386 16.4091C121.386 14.6212 121.712 13.0455 122.364 11.6818C123.023 10.3106 123.939 9.24242 125.114 8.47727C126.295 7.70455 127.674 7.31818 129.25 7.31818C130.159 7.31818 131.057 7.4697 131.943 7.77273C132.83 8.07576 133.636 8.56818 134.364 9.25C135.091 9.92424 135.67 10.8182 136.102 11.9318C136.534 13.0455 136.75 14.4167 136.75 16.0455V17.1818H123.295V14.8636H134.023C134.023 13.8788 133.826 13 133.432 12.2273C133.045 11.4545 132.492 10.8447 131.773 10.3977C131.061 9.95076 130.22 9.72727 129.25 9.72727C128.182 9.72727 127.258 9.99242 126.477 10.5227C125.705 11.0455 125.11 11.7273 124.693 12.5682C124.277 13.4091 124.068 14.3106 124.068 15.2727V16.8182C124.068 18.1364 124.295 19.2538 124.75 20.1705C125.212 21.0795 125.852 21.7727 126.67 22.25C127.489 22.7197 128.439 22.9545 129.523 22.9545C130.227 22.9545 130.864 22.8561 131.432 22.6591C132.008 22.4545 132.504 22.1515 132.92 21.75C133.337 21.3409 133.659 20.8333 133.886 20.2273L136.477 20.9545C136.205 21.8333 135.746 22.6061 135.102 23.2727C134.458 23.9318 133.663 24.447 132.716 24.8182C131.769 25.1818 130.705 25.3636 129.523 25.3636ZM157.42 7.54545V9.81818H148.375V7.54545H157.42ZM151.011 3.36364H153.693V20C153.693 20.7576 153.803 21.3258 154.023 21.7045C154.25 22.0758 154.538 22.3258 154.886 22.4545C155.242 22.5758 155.617 22.6364 156.011 22.6364C156.307 22.6364 156.549 22.6212 156.739 22.5909C156.928 22.553 157.08 22.5227 157.193 22.5L157.739 24.9091C157.557 24.9773 157.303 25.0455 156.977 25.1136C156.652 25.1894 156.239 25.2273 155.739 25.2273C154.981 25.2273 154.239 25.0644 153.511 24.7386C152.792 24.4129 152.193 23.9167 151.716 23.25C151.246 22.5833 151.011 21.7424 151.011 20.7273V3.36364ZM168.358 25.3636C166.782 25.3636 165.4 24.9886 164.21 24.2386C163.028 23.4886 162.104 22.4394 161.438 21.0909C160.778 19.7424 160.449 18.1667 160.449 16.3636C160.449 14.5455 160.778 12.9583 161.438 11.6023C162.104 10.2462 163.028 9.19318 164.21 8.44318C165.4 7.69318 166.782 7.31818 168.358 7.31818C169.934 7.31818 171.313 7.69318 172.494 8.44318C173.684 9.19318 174.608 10.2462 175.267 11.6023C175.934 12.9583 176.267 14.5455 176.267 16.3636C176.267 18.1667 175.934 19.7424 175.267 21.0909C174.608 22.4394 173.684 23.4886 172.494 24.2386C171.313 24.9886 169.934 25.3636 168.358 25.3636ZM168.358 22.9545C169.555 22.9545 170.54 22.6477 171.312 22.0341C172.085 21.4205 172.657 20.6136 173.028 19.6136C173.4 18.6136 173.585 17.5303 173.585 16.3636C173.585 15.197 173.4 14.1098 173.028 13.1023C172.657 12.0947 172.085 11.2803 171.312 10.6591C170.54 10.0379 169.555 9.72727 168.358 9.72727C167.161 9.72727 166.176 10.0379 165.403 10.6591C164.631 11.2803 164.059 12.0947 163.688 13.1023C163.316 14.1098 163.131 15.197 163.131 16.3636C163.131 17.5303 163.316 18.6136 163.688 19.6136C164.059 20.6136 164.631 21.4205 165.403 22.0341C166.176 22.6477 167.161 22.9545 168.358 22.9545ZM196.906 25H189.724V1.72727H197.224C199.482 1.72727 201.414 2.19318 203.02 3.125C204.626 4.04924 205.857 5.37879 206.713 7.11364C207.569 8.84091 207.997 10.9091 207.997 13.3182C207.997 15.7424 207.565 17.8295 206.702 19.5795C205.838 21.322 204.58 22.6629 202.929 23.6023C201.277 24.5341 199.27 25 196.906 25ZM192.543 22.5H196.724C198.649 22.5 200.243 22.1288 201.509 21.3864C202.774 20.6439 203.717 19.5871 204.338 18.2159C204.959 16.8447 205.27 15.2121 205.27 13.3182C205.27 11.4394 204.963 9.82197 204.349 8.46591C203.736 7.10227 202.819 6.05682 201.599 5.32954C200.38 4.5947 198.861 4.22727 197.043 4.22727H192.543V22.5ZM212.361 25V7.54545H215.043V25H212.361ZM213.724 4.63636C213.202 4.63636 212.751 4.45833 212.372 4.10227C212.001 3.74621 211.815 3.31818 211.815 2.81818C211.815 2.31818 212.001 1.89015 212.372 1.53409C212.751 1.17803 213.202 1 213.724 1C214.247 1 214.694 1.17803 215.065 1.53409C215.444 1.89015 215.634 2.31818 215.634 2.81818C215.634 3.31818 215.444 3.74621 215.065 4.10227C214.694 4.45833 214.247 4.63636 213.724 4.63636ZM227 31.9091C225.705 31.9091 224.591 31.7424 223.659 31.4091C222.727 31.0833 221.951 30.6515 221.33 30.1136C220.716 29.5833 220.227 29.0152 219.864 28.4091L222 26.9091C222.242 27.2273 222.549 27.5909 222.92 28C223.292 28.4167 223.799 28.7765 224.443 29.0795C225.095 29.3902 225.947 29.5455 227 29.5455C228.409 29.5455 229.572 29.2045 230.489 28.5227C231.405 27.8409 231.864 26.7727 231.864 25.3182V21.7727H231.636C231.439 22.0909 231.159 22.4848 230.795 22.9545C230.439 23.4167 229.924 23.8295 229.25 24.1932C228.583 24.5492 227.682 24.7273 226.545 24.7273C225.136 24.7273 223.871 24.3939 222.75 23.7273C221.636 23.0606 220.754 22.0909 220.102 20.8182C219.458 19.5455 219.136 18 219.136 16.1818C219.136 14.3939 219.451 12.8371 220.08 11.5114C220.708 10.178 221.583 9.14773 222.705 8.42045C223.826 7.68561 225.121 7.31818 226.591 7.31818C227.727 7.31818 228.629 7.50758 229.295 7.88636C229.97 8.25758 230.485 8.68182 230.841 9.15909C231.205 9.62879 231.485 10.0152 231.682 10.3182H231.955V7.54545H234.545V25.5C234.545 27 234.205 28.2197 233.523 29.1591C232.848 30.1061 231.939 30.7992 230.795 31.2386C229.659 31.6856 228.394 31.9091 227 31.9091ZM226.909 22.3182C227.985 22.3182 228.894 22.072 229.636 21.5795C230.379 21.0871 230.943 20.3788 231.33 19.4545C231.716 18.5303 231.909 17.4242 231.909 16.1364C231.909 14.8788 231.72 13.7689 231.341 12.8068C230.962 11.8447 230.402 11.0909 229.659 10.5455C228.917 10 228 9.72727 226.909 9.72727C225.773 9.72727 224.826 10.0152 224.068 10.5909C223.318 11.1667 222.754 11.9394 222.375 12.9091C222.004 13.8788 221.818 14.9545 221.818 16.1364C221.818 17.3485 222.008 18.4205 222.386 19.3523C222.773 20.2765 223.341 21.0038 224.091 21.5341C224.848 22.0568 225.788 22.3182 226.909 22.3182ZM239.455 25V7.54545H242.136V25H239.455ZM240.818 4.63636C240.295 4.63636 239.845 4.45833 239.466 4.10227C239.095 3.74621 238.909 3.31818 238.909 2.81818C238.909 2.31818 239.095 1.89015 239.466 1.53409C239.845 1.17803 240.295 1 240.818 1C241.341 1 241.788 1.17803 242.159 1.53409C242.538 1.89015 242.727 2.31818 242.727 2.81818C242.727 3.31818 242.538 3.74621 242.159 4.10227C241.788 4.45833 241.341 4.63636 240.818 4.63636ZM254.639 7.54545V9.81818H245.594V7.54545H254.639ZM248.23 3.36364H250.912V20C250.912 20.7576 251.022 21.3258 251.241 21.7045C251.469 22.0758 251.757 22.3258 252.105 22.4545C252.461 22.5758 252.836 22.6364 253.23 22.6364C253.526 22.6364 253.768 22.6212 253.957 22.5909C254.147 22.553 254.298 22.5227 254.412 22.5L254.957 24.9091C254.776 24.9773 254.522 25.0455 254.196 25.1136C253.87 25.1894 253.457 25.2273 252.957 25.2273C252.2 25.2273 251.457 25.0644 250.73 24.7386C250.01 24.4129 249.412 23.9167 248.935 23.25C248.465 22.5833 248.23 21.7424 248.23 20.7273V3.36364ZM263.81 25.4091C262.704 25.4091 261.7 25.2008 260.798 24.7841C259.897 24.3598 259.181 23.75 258.651 22.9545C258.12 22.1515 257.855 21.1818 257.855 20.0455C257.855 19.0455 258.052 18.2348 258.446 17.6136C258.84 16.9848 259.366 16.4924 260.026 16.1364C260.685 15.7803 261.412 15.5152 262.207 15.3409C263.01 15.1591 263.817 15.0152 264.628 14.9091C265.688 14.7727 266.548 14.6705 267.207 14.6023C267.874 14.5265 268.359 14.4015 268.662 14.2273C268.973 14.053 269.128 13.75 269.128 13.3182V13.2273C269.128 12.1061 268.821 11.2348 268.207 10.6136C267.601 9.99242 266.681 9.68182 265.446 9.68182C264.166 9.68182 263.162 9.96212 262.435 10.5227C261.707 11.0833 261.196 11.6818 260.901 12.3182L258.355 11.4091C258.81 10.3485 259.416 9.52273 260.173 8.93182C260.938 8.33333 261.772 7.91667 262.673 7.68182C263.582 7.43939 264.476 7.31818 265.355 7.31818C265.916 7.31818 266.56 7.38636 267.287 7.52273C268.022 7.65151 268.73 7.92045 269.412 8.32954C270.101 8.73864 270.673 9.35606 271.128 10.1818C271.582 11.0076 271.81 12.1136 271.81 13.5V25H269.128V22.6364H268.991C268.81 23.0152 268.507 23.4205 268.082 23.8523C267.658 24.2841 267.094 24.6515 266.389 24.9545C265.685 25.2576 264.825 25.4091 263.81 25.4091ZM264.219 23C265.279 23 266.173 22.7917 266.901 22.375C267.635 21.9583 268.188 21.4205 268.56 20.7614C268.938 20.1023 269.128 19.4091 269.128 18.6818V16.2273C269.014 16.3636 268.764 16.4886 268.378 16.6023C267.999 16.7083 267.56 16.803 267.06 16.8864C266.567 16.9621 266.086 17.0303 265.616 17.0909C265.154 17.1439 264.779 17.1894 264.491 17.2273C263.795 17.3182 263.143 17.4659 262.537 17.6705C261.938 17.8674 261.454 18.1667 261.082 18.5682C260.719 18.9621 260.537 19.5 260.537 20.1818C260.537 21.1136 260.882 21.8182 261.571 22.2955C262.268 22.7652 263.151 23 264.219 23ZM279.386 1.72727V25H276.705V1.72727H279.386ZM292.071 7.54545V9.81818H282.662V7.54545H292.071ZM285.48 25V5.13636C285.48 4.13636 285.715 3.30303 286.185 2.63636C286.654 1.9697 287.264 1.4697 288.014 1.13636C288.764 0.803029 289.556 0.636362 290.389 0.636362C291.048 0.636362 291.586 0.689393 292.003 0.795454C292.42 0.901514 292.73 0.999999 292.935 1.09091L292.162 3.40909C292.026 3.36364 291.836 3.30682 291.594 3.23864C291.359 3.17045 291.048 3.13636 290.662 3.13636C289.776 3.13636 289.135 3.35985 288.741 3.80682C288.355 4.25379 288.162 4.90909 288.162 5.77273V25H285.48ZM298.511 1.72727V25H295.83V1.72727H298.511ZM308.56 25.4091C307.454 25.4091 306.45 25.2008 305.548 24.7841C304.647 24.3598 303.931 23.75 303.401 22.9545C302.87 22.1515 302.605 21.1818 302.605 20.0455C302.605 19.0455 302.802 18.2348 303.196 17.6136C303.59 16.9848 304.116 16.4924 304.776 16.1364C305.435 15.7803 306.162 15.5152 306.957 15.3409C307.76 15.1591 308.567 15.0152 309.378 14.9091C310.438 14.7727 311.298 14.6705 311.957 14.6023C312.624 14.5265 313.109 14.4015 313.412 14.2273C313.723 14.053 313.878 13.75 313.878 13.3182V13.2273C313.878 12.1061 313.571 11.2348 312.957 10.6136C312.351 9.99242 311.431 9.68182 310.196 9.68182C308.916 9.68182 307.912 9.96212 307.185 10.5227C306.457 11.0833 305.946 11.6818 305.651 12.3182L303.105 11.4091C303.56 10.3485 304.166 9.52273 304.923 8.93182C305.688 8.33333 306.522 7.91667 307.423 7.68182C308.332 7.43939 309.226 7.31818 310.105 7.31818C310.666 7.31818 311.31 7.38636 312.037 7.52273C312.772 7.65151 313.48 7.92045 314.162 8.32954C314.851 8.73864 315.423 9.35606 315.878 10.1818C316.332 11.0076 316.56 12.1136 316.56 13.5V25H313.878V22.6364H313.741C313.56 23.0152 313.257 23.4205 312.832 23.8523C312.408 24.2841 311.844 24.6515 311.139 24.9545C310.435 25.2576 309.575 25.4091 308.56 25.4091ZM308.969 23C310.029 23 310.923 22.7917 311.651 22.375C312.385 21.9583 312.938 21.4205 313.31 20.7614C313.688 20.1023 313.878 19.4091 313.878 18.6818V16.2273C313.764 16.3636 313.514 16.4886 313.128 16.6023C312.749 16.7083 312.31 16.803 311.81 16.8864C311.317 16.9621 310.836 17.0303 310.366 17.0909C309.904 17.1439 309.529 17.1894 309.241 17.2273C308.545 17.3182 307.893 17.4659 307.287 17.6705C306.688 17.8674 306.204 18.1667 305.832 18.5682C305.469 18.9621 305.287 19.5 305.287 20.1818C305.287 21.1136 305.632 21.8182 306.321 22.2955C307.018 22.7652 307.901 23 308.969 23ZM323.955 18.6364L323.909 15.3182H324.455L332.091 7.54545H335.409L327.273 15.7727H327.045L323.955 18.6364ZM321.455 25V1.72727H324.136V25H321.455ZM332.545 25L325.727 16.3636L327.636 14.5L335.955 25H332.545ZM345.46 25.3636C343.778 25.3636 342.328 24.9924 341.108 24.25C339.896 23.5 338.96 22.4545 338.301 21.1136C337.65 19.7652 337.324 18.197 337.324 16.4091C337.324 14.6212 337.65 13.0455 338.301 11.6818C338.96 10.3106 339.877 9.24242 341.051 8.47727C342.233 7.70455 343.612 7.31818 345.188 7.31818C346.097 7.31818 346.994 7.4697 347.881 7.77273C348.767 8.07576 349.574 8.56818 350.301 9.25C351.028 9.92424 351.608 10.8182 352.04 11.9318C352.472 13.0455 352.688 14.4167 352.688 16.0455V17.1818H339.233V14.8636H349.96C349.96 13.8788 349.763 13 349.369 12.2273C348.983 11.4545 348.43 10.8447 347.71 10.3977C346.998 9.95076 346.157 9.72727 345.188 9.72727C344.119 9.72727 343.195 9.99242 342.415 10.5227C341.642 11.0455 341.047 11.7273 340.631 12.5682C340.214 13.4091 340.006 14.3106 340.006 15.2727V16.8182C340.006 18.1364 340.233 19.2538 340.688 20.1705C341.15 21.0795 341.79 21.7727 342.608 22.25C343.426 22.7197 344.377 22.9545 345.46 22.9545C346.165 22.9545 346.801 22.8561 347.369 22.6591C347.945 22.4545 348.441 22.1515 348.858 21.75C349.275 21.3409 349.597 20.8333 349.824 20.2273L352.415 20.9545C352.142 21.8333 351.684 22.6061 351.04 23.2727C350.396 23.9318 349.6 24.447 348.653 24.8182C347.706 25.1818 346.642 25.3636 345.46 25.3636ZM367.085 25H364.131L372.676 1.72727H375.585L384.131 25H381.176L374.222 5.40909H374.04L367.085 25ZM368.176 15.9091H380.085V18.4091H368.176V15.9091ZM393.983 25.3636C392.528 25.3636 391.244 24.9962 390.131 24.2614C389.017 23.5189 388.146 22.4735 387.517 21.125C386.888 19.7689 386.574 18.1667 386.574 16.3182C386.574 14.4848 386.888 12.8939 387.517 11.5455C388.146 10.197 389.021 9.1553 390.142 8.42045C391.263 7.68561 392.559 7.31818 394.028 7.31818C395.165 7.31818 396.063 7.50758 396.722 7.88636C397.388 8.25758 397.896 8.68182 398.244 9.15909C398.6 9.62879 398.877 10.0152 399.074 10.3182H399.301V1.72727H401.983V25H399.392V22.3182H399.074C398.877 22.6364 398.597 23.0379 398.233 23.5227C397.869 24 397.35 24.428 396.676 24.8068C396.002 25.178 395.104 25.3636 393.983 25.3636ZM394.347 22.9545C395.422 22.9545 396.331 22.6742 397.074 22.1136C397.816 21.5455 398.381 20.7614 398.767 19.7614C399.153 18.7538 399.347 17.5909 399.347 16.2727C399.347 14.9697 399.157 13.8295 398.778 12.8523C398.4 11.8674 397.839 11.1023 397.097 10.5568C396.354 10.0038 395.438 9.72727 394.347 9.72727C393.21 9.72727 392.263 10.0189 391.506 10.6023C390.756 11.178 390.191 11.9621 389.812 12.9545C389.441 13.9394 389.256 15.0455 389.256 16.2727C389.256 17.5152 389.445 18.6439 389.824 19.6591C390.21 20.6667 390.778 21.4697 391.528 22.0682C392.286 22.6591 393.225 22.9545 394.347 22.9545ZM407.267 25V7.54545H409.858V10.2727H410.085C410.449 9.34091 411.036 8.61742 411.847 8.10227C412.657 7.57955 413.631 7.31818 414.767 7.31818C415.919 7.31818 416.877 7.57955 417.642 8.10227C418.415 8.61742 419.017 9.34091 419.449 10.2727H419.631C420.078 9.37121 420.748 8.6553 421.642 8.125C422.536 7.58712 423.608 7.31818 424.858 7.31818C426.419 7.31818 427.695 7.80682 428.688 8.78409C429.68 9.75379 430.176 11.2652 430.176 13.3182V25H427.494V13.3182C427.494 12.0303 427.142 11.1098 426.438 10.5568C425.733 10.0038 424.903 9.72727 423.949 9.72727C422.722 9.72727 421.771 10.0985 421.097 10.8409C420.422 11.5758 420.085 12.5076 420.085 13.6364V25H417.358V13.0455C417.358 12.053 417.036 11.2538 416.392 10.6477C415.748 10.0341 414.919 9.72727 413.903 9.72727C413.206 9.72727 412.555 9.91288 411.949 10.2841C411.35 10.6553 410.866 11.1705 410.494 11.8295C410.131 12.4811 409.949 13.2348 409.949 14.0909V25H407.267ZM435.08 25V7.54545H437.761V25H435.08ZM436.443 4.63636C435.92 4.63636 435.47 4.45833 435.091 4.10227C434.72 3.74621 434.534 3.31818 434.534 2.81818C434.534 2.31818 434.72 1.89015 435.091 1.53409C435.47 1.17803 435.92 1 436.443 1C436.966 1 437.413 1.17803 437.784 1.53409C438.163 1.89015 438.352 2.31818 438.352 2.81818C438.352 3.31818 438.163 3.74621 437.784 4.10227C437.413 4.45833 436.966 4.63636 436.443 4.63636ZM445.355 14.5V25H442.673V7.54545H445.264V10.2727H445.491C445.901 9.38636 446.522 8.67424 447.355 8.13636C448.188 7.59091 449.264 7.31818 450.582 7.31818C451.764 7.31818 452.798 7.56061 453.685 8.04545C454.571 8.52273 455.26 9.25 455.753 10.2273C456.245 11.197 456.491 12.4242 456.491 13.9091V25H453.81V14.0909C453.81 12.7197 453.454 11.6515 452.741 10.8864C452.029 10.1136 451.052 9.72727 449.81 9.72727C448.954 9.72727 448.188 9.91288 447.514 10.2841C446.848 10.6553 446.321 11.197 445.935 11.9091C445.548 12.6212 445.355 13.4848 445.355 14.5Z" fill="#040404"/>
</svg>
